<svg xmlns="http://www.w3.org/2000/svg" viewBox="0 0 800 704.18"><defs><style>.cls-1{fill:#089f8e;}</style></defs><title>agreement</title><g id="Layer_2" data-name="Layer 2"><g id="Capa_1" data-name="Capa 1"><path class="cls-1" d="M621.42,128.35a89.43,89.43,0,0,0,46.12-12.63L800,37.42V.82L651,87.65a72.25,72.25,0,0,1-37.09,9.85L416.58,95.2c-9.85-3.61-17.73-5.91-20.68-7.06-61.72-13.79-110-8.37-142.8.49a110.2,110.2,0,0,1-74.19-6.56L0,0V327.94l18.55,10.18a149.35,149.35,0,0,1,62.86,66.15l-10.5,8.53C42.68,433.32,36.6,473,55.15,501.11a66,66,0,0,0,41.69,25.27c2,.17,4.92.33,7.06.33A80.52,80.52,0,0,0,121,525.56c.33,14.12,3.61,26.27,12,37.76C144.11,578.91,161.84,586,180.88,587c4.92.33,10,.49,14,.82a59.38,59.38,0,0,0,11.82,42.68,66,66,0,0,0,41.69,25.27c2,.17,4.92.33,7.06.33a63,63,0,0,0,40.7-11.82l6.24-4.76c1.48,9,4.1,17.24,9.68,24.63,8.37,11.48,21,19.2,36,22,2,.16,3.94.16,6.07.33a54.92,54.92,0,0,0,34.63-10.18h1l7.39,10.34c13,18.71,39.88,23.15,58.59,10.18,15.6-11.16,21.83-33,14.77-50.39l1.32,2c12.31,18.22,35.62,26.1,56,17.72,22.48-9.19,31.51-33.48,25.6-54.32,15.1,16.9,41,20.18,59.75,7.22l1-1c18.72-13,24.13-37.75,14.12-57.44,16.25,14.93,42.18,17.23,60.89,4.26,21.83-15.92,27.58-46.61,11.66-68.61l-23.31-33.32,50.72-59.08a181.91,181.91,0,0,1,46.94-39.07l25-14.44V311.2l-34.47,19.53a196.15,196.15,0,0,0-52.19,42.84l-54.5,63.2c-16.25-14.94-42.18-17.24-60.89-4.27-21.83,15.92-27.58,46.61-11.66,68.61l.83,2.13h-1a46.71,46.71,0,0,0-53-.82l-1,1a45.05,45.05,0,0,0-18.38,45.13l-5.26,3.78c-14.6-7.72-32.66-7.72-47.27,2.46-13.46,9.36-20.35,25.93-19.2,41L427.57,605a41.23,41.23,0,0,0-32.33,6.23c-11.49,8.37-18.22,22.16-17.89,35.13L370.13,651c-4.27,3.78-11.33,5.42-17.24,4.11a26.25,26.25,0,0,1-15.59-9.85c-3.78-4.27-5.42-11.33-4.1-17.23a26.21,26.21,0,0,1,9.84-15.6l78.3-58.92a14.15,14.15,0,0,0,6.56-11.66c.5-9-7.22-16.74-16.08-16.74a17.93,17.93,0,0,0-9.19,2.46L277.55,618.14c-7.22,4.59-15.42,7.22-24.29,5.74s-16.74-5.91-21.34-13.13c-10.34-13.62-7.22-34.47,7.39-44.64l149-106.36a16.29,16.29,0,0,0,5.58-12.48,16.09,16.09,0,0,0-15.43-16.08,14.61,14.61,0,0,0-12.15,5.41L220.43,542.14c-4.1,1.81-6.23,4.76-9.35,7.55-17.56,11.16-43.5,8.7-52.85-3.77a33.21,33.21,0,0,1,4.26-42.84L177.1,492.9,339.27,382.27a14.18,14.18,0,0,0,6.57-11.65A15.56,15.56,0,0,0,339.11,357c-5.75-4.11-11.49-4.27-17.57-.66l-173.65,118c-1.15,2-3.12,2.79-4.27,3.78l-16.74,12.14c-13.63,10.35-34.47,7.23-44.65-7.38-10.34-13.62-7.22-34.47,7.39-44.65L417.07,197.13c26.26,15.43,45.63,46.45,45.63,46.45,32.17,100.78,72.22,101.6,96.51,89.45,12.64-6.24,18.39-21.17,13.95-34.63C560.36,259.5,553,184.16,553,184.16c-9-19.53-37.92-40-70.09-56.79L588.1,129Z"/></g></g></svg>