<svg xmlns="http://www.w3.org/2000/svg" viewBox="0 0 16 16"><defs><style>.cls-1{fill:#fff;}</style></defs><title>close</title><g id="Layer_2" data-name="Layer 2"><g id="Layer_1-2" data-name="Layer 1"><g id="Layer_2-2" data-name="Layer 2"><g id="Layer_1-2-2" data-name="Layer 1-2"><path class="cls-1" d="M9.42,8l6.3-6.29A1,1,0,0,0,16,1a1.05,1.05,0,0,0-.29-.71A1.05,1.05,0,0,0,15,0a1,1,0,0,0-.71.29L8,6.59,1.72.29A1,1,0,0,0,0,1a1,1,0,0,0,.3.71L6.6,8,.3,14.29a1.06,1.06,0,0,0-.22.33A1,1,0,0,0,0,15a1,1,0,0,0,.08.39.87.87,0,0,0,.22.32.87.87,0,0,0,.32.22A1,1,0,0,0,1,16a1,1,0,0,0,.71-.3L8,9.41l6.29,6.3a.87.87,0,0,0,.32.22A1,1,0,0,0,15,16a1,1,0,0,0,.92-.62.94.94,0,0,0,0-.76,1.15,1.15,0,0,0-.21-.33Z"/></g></g></g></g></svg>