<svg xmlns="http://www.w3.org/2000/svg" viewBox="0 0 800 695.42"><defs><style>.cls-1{fill:#089f8e;}</style></defs><title>community</title><g id="Layer_2" data-name="Layer 2"><g id="Capa_1" data-name="Capa 1"><circle class="cls-1" cx="398.53" cy="93.42" r="93.42"/><path class="cls-1" d="M725.54,350.42l-87.07-18.16c-29.66-6.21-58.94,7.38-74.43,31.55a320.69,320.69,0,0,0-48.4-19.91V292.13a71.36,71.36,0,0,0-71.07-71.21h-89a71.33,71.33,0,0,0-71.17,71.21v52A315.27,315.27,0,0,0,236.21,364c-15.48-24.28-44.8-38-74.5-31.76L74.58,350.42c-38.25,8-63.07,45.94-55.07,84.32L41.38,539.21c7.93,38.28,45.9,63.1,84.18,55.1l27.57-5.77c13.8,20.4,32.89,39.11,57.33,55.11C261.38,677,328.63,695.42,400,695.42c109.2,0,203.27-43.91,246.6-107l28,5.87c38.25,8,76.22-16.82,84.15-55.1l21.9-104.47C788.64,396.36,763.82,358.42,725.54,350.42ZM400,659.75c-64.47,0-124.9-16.24-170-45.94a179,179,0,0,1-38.52-33.33l21.11-4.43a71.39,71.39,0,0,0,55.14-84.22L248.12,397.9a269.35,269.35,0,0,1,36.22-16.13V398.9A71.36,71.36,0,0,0,355.51,470h89A71.35,71.35,0,0,0,515.6,398.9v-18a271.67,271.67,0,0,1,36.56,16l-19.88,95c-7.93,38.31,16.86,76.25,55.17,84.21l21.32,4.46C569,627.61,490.37,659.75,400,659.75Z"/><circle class="cls-1" cx="706.59" cy="216.22" r="93.42"/><path class="cls-1" d="M112.58,307.68A93.44,93.44,0,1,0,2,235.31,93.58,93.58,0,0,0,112.58,307.68Z"/></g></g></svg>