<svg xmlns="http://www.w3.org/2000/svg" viewBox="0 0 750 650"><defs><style>.cls-1{fill:#019c8a;}</style></defs><title>desktop</title><g id="Layer_2" data-name="Layer 2"><g id="Layer_1-2" data-name="Layer 1"><path class="cls-1" d="M0,475a75.08,75.08,0,0,0,75,75H284.19l-6.25,50H200a25,25,0,0,0,0,50H550a25,25,0,0,0,0-50H472.06l-6.25-50H675a75.08,75.08,0,0,0,75-75V400H0Zm375-25a25,25,0,1,1-25,25A25,25,0,0,1,375,450Z"/><path class="cls-1" d="M750,75A75.08,75.08,0,0,0,675,0H75A75.08,75.08,0,0,0,0,75V375H750Z"/></g></g></svg>