<svg xmlns="http://www.w3.org/2000/svg" viewBox="0 0 800 587.73"><defs><style>.cls-1{fill:#089f8e;}</style></defs><title>emailMarketing</title><g id="Layer_2" data-name="Layer 2"><g id="_2" data-name="2"><path class="cls-1" d="M688.93,0H111.07A111.07,111.07,0,0,0,0,111.07v365.6A111.07,111.07,0,0,0,111.07,587.73H688.93A111.07,111.07,0,0,0,800,476.67V111.07A111.07,111.07,0,0,0,688.93,0ZM278.38,396.55,122.85,529.24A26.12,26.12,0,1,1,89,489.5L244.48,356.81a26.12,26.12,0,1,1,33.9,39.74ZM400,346.11c-20.8-.05-41-7-56.73-20.6h0l0,0,0,0L104.63,118.39a26.12,26.12,0,1,1,34.23-39.47L377.56,286.1c5.11,4.54,13.51,7.82,22.44,7.77s17.18-3.17,22.56-7.86l.12-.1,238.46-207a26.12,26.12,0,1,1,34.23,39.46L456.67,325.58A86.84,86.84,0,0,1,400,346.11ZM714,526.32a26.11,26.11,0,0,1-36.82,2.92L521.63,396.55a26.12,26.12,0,1,1,33.9-39.74L711.06,489.5A26.11,26.11,0,0,1,714,526.32Z"/></g></g></svg>