<svg xmlns="http://www.w3.org/2000/svg" viewBox="0 0 800 627.93"><defs><style>.cls-1{fill:#fff;}</style></defs><title>email</title><g id="Layer_2" data-name="Layer 2"><g id="_2" data-name="2"><path class="cls-1" d="M797.93,89.4A110.71,110.71,0,0,0,775,40.87a96.44,96.44,0,0,0-7.54-8.35A110.72,110.72,0,0,0,689,0H111A110.85,110.85,0,0,0,32.52,32.52,98.1,98.1,0,0,0,25,40.87,109.32,109.32,0,0,0,2.17,89.4,106.6,106.6,0,0,0,0,111V517A110.32,110.32,0,0,0,9.19,561a108.7,108.7,0,0,0,23.33,34.38c2.48,2.48,4.95,4.76,7.64,7A110.87,110.87,0,0,0,111,627.93H689a110.19,110.19,0,0,0,70.82-25.6,95.42,95.42,0,0,0,7.64-6.92A111,111,0,0,0,790.92,561v-.1A109.77,109.77,0,0,0,800,517V111A113.42,113.42,0,0,0,797.93,89.4ZM72.67,72.67A53.61,53.61,0,0,1,111,56.77H689a53.42,53.42,0,0,1,38.3,15.9,54.23,54.23,0,0,1,4.86,5.68l-303,264.06a44.47,44.47,0,0,1-58.42,0L67.93,78.24A41,41,0,0,1,72.67,72.67ZM56.77,517V137L276,328.26,56.88,519.33A16.25,16.25,0,0,1,56.77,517ZM689,571.15H111A53.45,53.45,0,0,1,84.14,564l231.21-201.5,21.59,18.78a96.09,96.09,0,0,0,126.24,0l21.57-18.78L715.88,564A53.58,53.58,0,0,1,689,571.15ZM743.23,517a16.25,16.25,0,0,1-.11,2.36L524,328.37,743.23,137.09Z"/></g></g></svg>