<svg xmlns="http://www.w3.org/2000/svg" viewBox="0 0 762.5 769.6"><defs><style>.cls-1{fill:#089f8e;}</style></defs><title>list</title><g id="Layer_2" data-name="Layer 2"><g id="Layer_1-2" data-name="Layer 1"><path class="cls-1" d="M731.25,357.1h-425a31.25,31.25,0,0,0,0,62.5h425a31.25,31.25,0,0,0,0-62.5Zm-425-212.5h425a31.25,31.25,0,0,0,0-62.5h-425a31.25,31.25,0,0,0,0,62.5Zm-175,412.5h-50A81.34,81.34,0,0,0,0,638.35v50A81.34,81.34,0,0,0,81.25,769.6h50a81.34,81.34,0,0,0,81.25-81.25v-50a81.34,81.34,0,0,0-81.25-81.25ZM150,688.35a18.76,18.76,0,0,1-18.75,18.75h-50A18.76,18.76,0,0,1,62.5,688.35v-50A18.76,18.76,0,0,1,81.25,619.6h50A18.76,18.76,0,0,1,150,638.35h0ZM731.25,632.1h-425a31.25,31.25,0,0,0,0,62.5h425a31.25,31.25,0,0,0,0-62.5Zm-523-346.83-128,140L53.28,398.5a31.24,31.24,0,1,0-44,44.32l50,49.7.55.38.37.52a29.08,29.08,0,0,0,6.15,3.83l.18.07a27.32,27.32,0,0,0,3.2,2l.15.08a30,30,0,0,0,11.42,2.2A30.41,30.41,0,0,0,93.53,499l-.2.08a32.24,32.24,0,0,0,3.5-2.35l-.08.05a30.14,30.14,0,0,0,6.7-4.48l0,0,.37-.58.5-.35,150-164a31.24,31.24,0,1,0-46.07-42.2l0,0Zm0-275-128,140L53.28,123.5a31.24,31.24,0,0,0-44,44.32h0l50,49.68.55.37.37.53a30.32,30.32,0,0,0,6,3.75l.18.07a30,30,0,0,0,3.35,2.1l.17.08a30,30,0,0,0,11.4,2.2A30.41,30.41,0,0,0,93.53,224l-.2.08a32.24,32.24,0,0,0,3.5-2.35l-.08.05a30.14,30.14,0,0,0,6.7-4.48l0,0,.37-.57.5-.35,150-164a31.24,31.24,0,1,0-46.07-42.2l0,0Z"/></g></g></svg>