<svg width="314" height="130" viewBox="0 0 314 130" fill="none" xmlns="http://www.w3.org/2000/svg">
<path d="M0.944001 101V0.199993H15.776V101H0.944001ZM59.8198 103.016C54.7318 103.016 50.1718 102.152 46.1398 100.424C42.2038 98.696 39.0358 96.152 36.6358 92.792C34.3318 89.432 33.1798 85.352 33.1798 80.552C33.1798 75.656 34.3318 71.624 36.6358 68.456C39.0358 65.192 42.2518 62.744 46.2838 61.112C50.4118 59.48 55.0678 58.664 60.2518 58.664H81.8518V54.056C81.8518 49.928 80.6038 46.616 78.1078 44.12C75.6118 41.624 71.7718 40.376 66.5878 40.376C61.4998 40.376 57.6118 41.576 54.9238 43.976C52.2358 46.376 50.4598 49.496 49.5958 53.336L35.7718 48.872C36.9238 45.032 38.7478 41.576 41.2438 38.504C43.8358 35.336 47.2438 32.792 51.4678 30.872C55.6918 28.952 60.7798 27.992 66.7318 27.992C75.9478 27.992 83.1958 30.344 88.4758 35.048C93.7558 39.752 96.3958 46.424 96.3958 55.064V84.296C96.3958 87.176 97.7398 88.616 100.428 88.616H106.476V101H95.3878C92.0278 101 89.2918 100.136 87.1798 98.408C85.0678 96.68 84.0118 94.328 84.0118 91.352V90.92H81.8518C81.0838 92.36 79.9318 94.04 78.3958 95.96C76.8598 97.88 74.6038 99.56 71.6278 101C68.6518 102.344 64.7158 103.016 59.8198 103.016ZM61.9798 90.776C67.9318 90.776 72.7318 89.096 76.3798 85.736C80.0278 82.28 81.8518 77.576 81.8518 71.624V70.184H61.1158C57.1798 70.184 54.0118 71.048 51.6118 72.776C49.2118 74.408 48.0117 76.856 48.0117 80.12C48.0117 83.384 49.2598 85.976 51.7558 87.896C54.2518 89.816 57.6598 90.776 61.9798 90.776ZM107.361 129.8V116.984H117.009C119.793 116.984 121.185 115.544 121.185 112.664V30.008H136.017V115.544C136.017 119.864 134.769 123.32 132.273 125.912C129.777 128.504 126.273 129.8 121.761 129.8H107.361ZM128.673 20.36C125.793 20.36 123.345 19.448 121.329 17.624C119.409 15.704 118.449 13.256 118.449 10.28C118.449 7.304 119.409 4.904 121.329 3.08C123.345 1.16 125.793 0.199993 128.673 0.199993C131.649 0.199993 134.097 1.16 136.017 3.08C137.937 4.904 138.897 7.304 138.897 10.28C138.897 13.256 137.937 15.704 136.017 17.624C134.097 19.448 131.649 20.36 128.673 20.36ZM158.022 101V0.199993H172.854V57.656H175.158L203.094 30.008H222.822L186.966 64.424L223.974 101H204.39L175.158 71.48H172.854V101H158.022ZM237.335 101V30.008H251.879V38.36H254.183C255.335 35.384 257.159 33.224 259.655 31.88C262.247 30.44 265.415 29.72 269.159 29.72H277.655V43.112H268.583C263.783 43.112 259.847 44.456 256.775 47.144C253.703 49.736 252.167 53.768 252.167 59.24V101H237.335Z" fill="#15191C"/>
<path d="M301.95 103.016C298.59 103.016 295.758 101.912 293.454 99.704C291.246 97.496 290.142 94.664 290.142 91.208C290.142 87.752 291.246 84.968 293.454 82.856C295.758 80.648 298.59 79.544 301.95 79.544C305.31 79.544 308.094 80.648 310.302 82.856C312.606 85.064 313.758 87.848 313.758 91.208C313.758 94.664 312.606 97.496 310.302 99.704C308.094 101.912 305.31 103.016 301.95 103.016Z" fill="#019C8A"/>
</svg>
