<svg xmlns="http://www.w3.org/2000/svg" viewBox="0 0 20.01 12"><defs><style>.cls-1{fill:#fff;}</style></defs><title>menu</title><g id="Layer_2" data-name="Layer 2"><g id="Layer_1-2" data-name="Layer 1"><g id="Layer_2-2" data-name="Layer 2"><g id="Layer_1-2-2" data-name="Layer 1-2"><path class="cls-1" d="M9,2H19a1,1,0,0,0,.71-.29A1,1,0,0,0,20,1a1,1,0,0,0-.29-.71A1,1,0,0,0,19,0H9A1,1,0,0,0,8.3.29,1,1,0,0,0,8,1a1,1,0,0,0,.29.71A1,1,0,0,0,9,2Zm10,8H1a1,1,0,0,0-.71.29,1,1,0,0,0,0,1.41h0A1,1,0,0,0,1,12H19a1,1,0,0,0,0-2ZM1,7H19a1,1,0,0,0,1-1,1,1,0,0,0-1-1H1a1,1,0,0,0-.71.29,1,1,0,0,0,0,1.41h0A1,1,0,0,0,1,7Z"/></g></g></g></g></svg>