<svg xmlns="http://www.w3.org/2000/svg" viewBox="0 0 774.17 799.99"><defs><style>.cls-1{fill:#019c8a;}</style></defs><title>palette</title><g id="Layer_2" data-name="Layer 2"><g id="Capa_1" data-name="Capa 1"><path class="cls-1" d="M729.15,657.09C695,636.5,640.91,630.76,639.82,549.62c-.57-48.15,33.47-100.82,43.11-146.7,21.23-100.81-2.87-163.62-9.19-188.42C633,55.7,440.63-34,260.48,12.09,164.61,36.62,88,95.32,43.21,168.65A268.5,268.5,0,0,0,12.49,235.1,272,272,0,0,0,.79,337.48c4.7,85,43.47,172.07,114.88,239C251.35,703.65,639.39,879.8,751.51,760.2,793.44,715.44,772,682.94,729.15,657.09ZM159.56,369.56a55.73,55.73,0,1,1,55.74-55.73A55.72,55.72,0,0,1,159.56,369.56ZM311.72,217.43a55.73,55.73,0,1,1,55.75-55.73A55.72,55.72,0,0,1,311.72,217.43ZM510.78,282.1a55.73,55.73,0,1,1,55.71-55.73A55.72,55.72,0,0,1,510.78,282.1Z"/></g></g></svg>