<svg xmlns="http://www.w3.org/2000/svg" viewBox="0 0 475 750"><defs><style>.cls-1{fill:#089f8e;fill-rule:evenodd;}</style></defs><title>pencil</title><g id="Layer_2" data-name="Layer 2"><g id="Layer_1-2" data-name="Layer 1"><g id="_64px-Glyph" data-name="64px-Glyph"><g id="con-ruler-pencil"><path id="Fill-195" class="cls-1" d="M87.5,550H200V500H137.5a12.5,12.5,0,0,1,0-25H200V425H87.5a12.5,12.5,0,0,1,0-25H200V350H137.5a12.5,12.5,0,0,1,0-25H200V275H87.5a12.5,12.5,0,0,1,0-25H200V200H137.5a12.5,12.5,0,0,1,0-25H200V125H87.5a12.5,12.5,0,0,1,0-25H200V12.5A12.5,12.5,0,0,0,187.5,0H12.5A12.5,12.5,0,0,0,0,12.5v725A12.49,12.49,0,0,0,12.5,750h175A12.49,12.49,0,0,0,200,737.5V650H112.5a12.5,12.5,0,0,1,0-25H200V575H87.5a12.5,12.5,0,0,1,0-25"/><path id="Fill-196" class="cls-1" d="M350,162.5a12.5,12.5,0,0,1,25,0v275a12.5,12.5,0,0,1-25,0ZM300,516.58a12.72,12.72,0,0,0,.66,4l2.21,6.52L354,478.34a12.52,12.52,0,0,1,17.35.32l41.16,41.16,62.5-62.5V125H300Z"/><path id="Fill-197" class="cls-1" d="M475,100V50A50,50,0,0,0,425,0H350a50,50,0,0,0-50,50v50Z"/><path id="Fill-198" class="cls-1" d="M421.34,546.34a12.51,12.51,0,0,1-17.68,0l-41.47-41.48-50.47,48.32L344.59,650h85.82l43.93-129.41a12.72,12.72,0,0,0,.66-4v-23.9Z"/><path id="Fill-199" class="cls-1" d="M353.08,675l22.58,66.51a12.5,12.5,0,0,0,23.68,0L421.93,675Z"/></g></g></g></g></svg>