<svg xmlns="http://www.w3.org/2000/svg" viewBox="0 0 650 650"><defs><style>.cls-1{fill:none;stroke:#fff;stroke-linecap:round;stroke-linejoin:round;stroke-width:50px;}</style></defs><title>phone</title><g id="Layer_2" data-name="Layer 2"><g id="Layer_1-2" data-name="Layer 1"><path class="cls-1" d="M625,564.55V474.22a60.13,60.13,0,0,0-14.29-40.42c-27-31.78-119.51-52.11-156.19-44.3-28.59,6.09-48.6,34.79-68.15,54.31a482.2,482.2,0,0,1-181-180.65c19.56-19.52,48.32-39.48,54.42-68,7.81-36.55-12.49-128.49-44-155.58A60.41,60.41,0,0,0,175.77,25H85.27c-34.48,0-63.17,31-60,65.64C25,389.5,258.33,625,559.21,624.76,594.07,627.91,625.12,599.08,625,564.55Z"/></g></g></svg>