<svg xmlns="http://www.w3.org/2000/svg" viewBox="0 0 483.4 502.71"><defs><style>.cls-1{fill:#089f8e;}</style></defs><title>ppc</title><g id="Layer_2" data-name="Layer 2"><g id="Layer_1-2" data-name="Layer 1"><path class="cls-1" d="M399.86,191.53a26.22,26.22,0,0,0-19-8,27,27,0,0,0-26.94,27.05V179.91A27.23,27.23,0,0,0,326.75,153a27,27,0,0,0-27.06,26.94V158.67a27.06,27.06,0,0,0-26.94-27,27,27,0,0,0-27.05,27V64.84a27.07,27.07,0,0,0-27-27.05A27,27,0,0,0,191.6,64.84V285.78l-24.09-41.73a28.69,28.69,0,0,0-49.67,28.74l55.31,95.87,31.29,21.54h177l26.48-38.48V210.56a26.37,26.37,0,0,0-8-19Z"/><path class="cls-1" d="M385.22,451.77a11.89,11.89,0,1,1-11.89-11.9,11.89,11.89,0,0,1,11.89,11.9"/><path class="cls-1" d="M175.82,400.75v102h232V400.85c-28.18,0-203.43-.11-232-.11Zm197.5,68.18a17.17,17.17,0,1,1,17.18-17.16A17.18,17.18,0,0,1,373.32,468.93Z"/><path class="cls-1" d="M268.52,66.56h14.8v5.28h-14.8Z"/><path class="cls-1" d="M405.63,30.2a48.23,48.23,0,1,0,48.29,48.28A48.25,48.25,0,0,0,405.63,30.2Zm0,45.64a14.5,14.5,0,0,1,2.65,28.75v4.86H403v-4.86a14.53,14.53,0,0,1-11.84-14.27h5.29a9.19,9.19,0,1,0,9.19-9.19A14.49,14.49,0,0,1,403,52.39V47.53h5.28v4.86A14.42,14.42,0,0,1,420.1,66.65h-5.28a9.19,9.19,0,1,0-9.19,9.19Z"/><path class="cls-1" d="M405.63.72A77.77,77.77,0,1,0,483.4,78.48,77.82,77.82,0,0,0,405.63.72Zm0,131.23A53.52,53.52,0,1,1,459.2,78.48,53.53,53.53,0,0,1,405.63,132Z"/><path class="cls-1" d="M70.79,110.08a43.53,43.53,0,1,0,43.53,43.53A43.6,43.6,0,0,0,70.79,110.08Zm0,40.89a13.27,13.27,0,0,1,2.64,26.3v4.44H68.15v-4.44a13.22,13.22,0,0,1-10.77-12.89h5.28a8.14,8.14,0,1,0,8.13-8.13,13.44,13.44,0,0,1-13.41-13.42,13.22,13.22,0,0,1,10.77-12.89V125.5h5.28v4.44a13.33,13.33,0,0,1,10.78,12.89H78.93A8.14,8.14,0,1,0,70.79,151Z"/><path class="cls-1" d="M70.79,82.81a70.8,70.8,0,1,0,70.8,70.8A70.94,70.94,0,0,0,70.79,82.81Zm0,119.62a48.82,48.82,0,1,1,48.82-48.82A48.9,48.9,0,0,1,70.79,202.43Z"/><path class="cls-1" d="M215.34,0h5.28V18.66h-5.28Z"/><path class="cls-1" d="M180.38,35.33,154,8.93l3.74-3.74,26.4,26.41Z"/><path class="cls-1" d="M153.47,66.56h14v5.28h-14Z"/><path class="cls-1" d="M255.58,35.33l-3.73-3.73,26.4-26.41L282,8.93Z"/></g></g></svg>