<svg xmlns="http://www.w3.org/2000/svg" viewBox="0 0 88.4 21.05"><defs><style>.cls-1{fill:#1d1d1b;}.cls-2{fill:#d61116;}</style></defs><title>sklik</title><g id="Layer_2" data-name="Layer 2"><g id="Vrstva_1" data-name="Vrstva 1"><path class="cls-1" d="M62.46,6.39c.27-2.29.59-3.78,1.17-4A2.76,2.76,0,0,1,66,3.2a3.3,3.3,0,0,1,.66,2,37.63,37.63,0,0,1,.12,4.75c-.07,1.45-.14,6.31-.11,7.42s-3.9.38-4-.68C62.36,15.91,62.18,8.69,62.46,6.39Z"/><path class="cls-1" d="M87.38,17.34c-.87.73-2.17,1.07-4.2,1a17.59,17.59,0,0,1-6.84-1.48c-1.45-.58-4.12-2-4.33-2.08s-.14,2-.55,2.93c-.29.67-2.38-.05-2.83-.46-.93-.83-.74-3.44-.76-7.26,0-3.11.19-7.08.77-7.61s1.74.31,2.43,1.08c1,1.12-.22,3.37.66,3.22.63-.11,3-1.66,4.64-2.48s2.51-.93,3.19-.54,2.57,2.31.91,3.24c-.91.4-2.53,1.26-3.68,1.86s-2.16,1.14-2.08,1.57,2.57,1.84,5.4,3a32.22,32.22,0,0,0,7,1.91C89.22,15.49,88.3,16.57,87.38,17.34Z"/><path class="cls-1" d="M60.73,12.32c-.74-.79-.9-.38-5.7.65-3.23.69-3.64,0-3.71-.57a38.54,38.54,0,0,1,0-4.56c.1-2.23.06-3.79-1-4.57A2.36,2.36,0,0,0,48,2.71c-.53.16-.84,1.65-.84,1.65a24.51,24.51,0,0,0-.46,4.1A23,23,0,0,0,46.83,13c-1.36-.11-8.13-1.87-8.72-3-.23-.44,1.78-1.64,2.79-2.17,1.29-.69,2.24-.9,2.83-1.32.92-.68.34-1.68-.44-2.7s-1.48-1-2.92-.29c-1.92,1-3.1,1.85-4.4,2.54-1.09.58-1.39.57-1.55.5-.36-.16-.19-1.87-.32-2.76a2.67,2.67,0,0,0-2-2c-1-.36-1.92-.57-2.1.87a76.87,76.87,0,0,0-.49,11.55c.1,3.28.15,3.47,1.06,3.93,2.14,1.09,3.09.5,3.15-1.11.07-2.19.07-2.82.58-2.84S39.43,16,42,16.66a41.06,41.06,0,0,0,8.55,1.27,21.24,21.24,0,0,0,7.88-1.07C59.8,16.45,61,15.71,61.15,15A3,3,0,0,0,60.73,12.32Z"/><path class="cls-2" d="M23.92.27c.45-.84.9.43,1.32,2S26.71,5.5,24,5.72a39.27,39.27,0,0,0-4.06,0,10.22,10.22,0,0,0-3.5.64.66.66,0,0,0-.08,1.25c.39.25,2.35,1,4.12,1.7,2.2.87,5.4,2,6.76,3a4,4,0,0,1,1.11,5.25c-.85,1.52-3.51,2.41-7.11,2.94a100.59,100.59,0,0,1-17.31.33c-3.33-.31-4-.52-3.88-.9s2.28-.27,4.28-.39c2.55-.16,13.39-1.1,15.84-2.87,1.5-1.08.65-2,.41-2.19-.63-.74-3-1.82-5.13-2.9C12.35,10,10.06,8.64,9.46,7.36A2.89,2.89,0,0,1,10.21,4a9.9,9.9,0,0,1,4.95-2.55A22.41,22.41,0,0,1,20.53.79C22,.74,23.64.8,23.92.27Z"/></g></g></svg>