<svg xmlns="http://www.w3.org/2000/svg" viewBox="0 0 508.4 504.22"><defs><style>.cls-1{fill:#089f8e;fill-rule:evenodd;}</style></defs><title>socialMedia</title><g id="Layer_2" data-name="Layer 2"><g id="Layer_1-2" data-name="Layer 1"><path class="cls-1" d="M167,372.6,96.76,410.07h0a7.55,7.55,0,0,0-.94.48,5.17,5.17,0,0,1-5.69-1.12l0-.05a4.83,4.83,0,0,1-.59-.76,8.13,8.13,0,0,0-.51-.91L38.58,313.2h0a7.55,7.55,0,0,0-.48-.94,5.13,5.13,0,0,1-.27-.78v-.07a5.18,5.18,0,0,1,.1-2.68,5.09,5.09,0,0,1,2.11-2.8,6.73,6.73,0,0,0,.91-.5L111.25,268ZM17.81,328.11a20.05,20.05,0,0,0-8.24,27L38.13,408.7a20.06,20.06,0,0,0,27,8.21l10-5.34c-15-29.73-32.06-59.08-47.46-88.73ZM181,206.45a305.42,305.42,0,0,1-57.65,54.2l56.49,106A305.69,305.69,0,0,1,257,349a281.06,281.06,0,0,1,62,.19L215.42,154.86A280.46,280.46,0,0,1,181,206.45ZM151.25,397l-20,10.64,35.7,67a10.38,10.38,0,0,0,10.51,6,13.27,13.27,0,0,0,8.61-4.59,10.39,10.39,0,0,0,.85-12.07ZM337.44,236.63a32.83,32.83,0,0,0-32.55-39.14l27.44,51.44h0a33,33,0,0,0,5.11-12.29Zm16.48,115.45a15.41,15.41,0,0,0,6.33-20.76L287.94,195.7c-.12-.22-.25-.44-.36-.68l-35.52-66.64h0a15.32,15.32,0,0,0-28.2,2.75,15.93,15.93,0,0,0-.66,3.81,4.82,4.82,0,0,1,0,.76,15.25,15.25,0,0,0,1.79,7.12L333.15,345.73a15.41,15.41,0,0,0,20.76,6.33Zm58.24-170.75a7.06,7.06,0,0,0-1.22-13.06,7,7,0,0,0-5.42.61l-31.59,16.84a7.06,7.06,0,1,0,6.64,12.45Zm17.76,64.36a7.07,7.07,0,0,0-7.61-6.5l-35.67,2.93h0a7.08,7.08,0,0,0,1.12,14.11l35.68-2.94a7.07,7.07,0,0,0,6.5-7.61Zm-95.76-82.24a7.07,7.07,0,0,0,9.94-1.12l22.33-28h0a7.07,7.07,0,0,0-11.07-8.8l-22.32,28a7.08,7.08,0,0,0,1.11,9.92Zm87.52-57.15c3.77,3.36,7.31,6.56,10.37,9.4,3.36-3.12,7.21-6.62,11.26-10.29,6.8-6.16,14.21-12.88,21.88-20.52C488.76,61.32,508.63,33.7,486,11.09a35.83,35.83,0,0,0-49.2-1.25,7.05,7.05,0,0,1-9.48,0,35.8,35.8,0,0,0-49.22,1.23c-22.63,22.63-2.33,50.81,21.09,74.24,7.91,7.9,15.59,14.81,22.47,21ZM340,499.64h34.52V422.76H340Zm167.65-74.95a18.7,18.7,0,0,0-3.91-7,18.49,18.49,0,0,0-14.48-6.5H456.92a7.09,7.09,0,0,1-3.36-13.32,53.47,53.47,0,0,0,6.06-16.12,72.12,72.12,0,0,0,2.67-20.3A20.92,20.92,0,0,0,458,347.74a11.47,11.47,0,0,0-7.27-3.25,2.89,2.89,0,0,0-1.95.44,3.51,3.51,0,0,0-1.36,1.87c-1.12,3.21-1.94,6.37-2.72,9.38-2.69,10.41-5,19.4-16.32,27.14h0a96.81,96.81,0,0,1-9,5.32A33.73,33.73,0,0,0,398.72,416c-.05.21-.1.42-.16.63h0A20.11,20.11,0,0,1,392.21,427a14,14,0,0,1-3.49,2.07v66.7a14.2,14.2,0,0,0,5.31,4.72,25.63,25.63,0,0,0,11.71,3.75h73.88a23.78,23.78,0,0,0,14.08-4.1,14.4,14.4,0,0,0,6.08-9.52l8.4-57.86a18.51,18.51,0,0,0-.51-8ZM26.23,135.21a7.07,7.07,0,0,1,2.21,6.93l-5.49,23,38.58-11.48a6.84,6.84,0,0,1,3.18-.21q2.91.47,6.21.74,3,.26,6.27.25h0a77.22,77.22,0,1,0-51-19.23Z"/></g></g></svg>