<svg xmlns="http://www.w3.org/2000/svg" viewBox="0 0 980 165.18"><defs><style>.cls-1{fill:#fdd231;}</style></defs><title>stars</title><g id="Layer_2" data-name="Layer 2"><g id="Layer_1-2" data-name="Layer 1"><path class="cls-1" d="M71.45,25.27c-7,14.08-13,25.68-13.25,26.09-.41.41-13.05,2.49-28.17,4.76C14.71,58.4,1.45,61.09.21,62.33c-1.45,1.45,4.56,8.7,19.26,23L40.8,106,36,134.82c-2.48,15.74-3.73,29.41-2.9,30.24s13.46-4.56,27.75-12l26.3-13.67,26.3,13.67c14.29,7.45,26.92,13,27.75,12,.83-.83-.62-14.5-3.31-30.44l-4.76-29,19.88-18.84c11.81-11,20.09-20.5,20.09-22.78,0-2.07-.41-3.93-1-3.93-1.45,0-42-6-50.32-7.25-6.42-1.24-7.46-2.69-19-27.13C94.85,9.11,89.47,0,87.4,0S79.53,9.11,71.45,25.27Z"/><path class="cls-1" d="M285.59,2.48c-1.24,1.45-7.45,13.05-13.88,25.89-10.56,21.33-12,23.19-18.23,24.44-3.73.62-16.15,2.49-27.54,4.14-11.39,1.86-21.54,4.14-22.78,5.38s5.38,9.32,19.05,23.19l20.92,21.12-5,28c-3.31,18.64-4.35,28.37-2.9,29.82s10.56-2.28,28-11.18l25.89-13.45L315,153.25c16.57,8.49,26.51,12.63,27.75,11.39,1.45-1.45.21-12-2.9-30l-5-28L356,85.53c14.91-15.33,20.3-22,18.85-23.4-1.24-1.24-14.7-4.14-30-6.42s-28-4.76-28.37-5.59C311.69,38.73,291.6,1,289.94.42A5.14,5.14,0,0,0,285.59,2.48Z"/><path class="cls-1" d="M477.37,25.27c-7,14.08-13.05,25.68-13.25,26.09-.41.41-13.05,2.49-28.17,4.76-15.33,2.28-28.58,5-29.82,6.21-1.45,1.45,4.56,8.7,19.26,23l21.54,20.92-4.76,28.58c-2.69,15.74-4.14,29.41-3.11,30.24.83.83,13.46-4.56,27.75-12l26.3-13.67,26.3,13.67c14.29,7.45,26.92,13,27.75,12,.83-.83-.62-14.5-3.31-30.44l-4.76-29L559,86.79c11.8-11,20.09-20.5,20.09-22.78,0-2.07-.42-3.93-1-3.93-1.45,0-42-5.8-50.12-7.25-6.21-1-7.46-2.9-19-26.92C500.77,9.13,495.39,0,493.32,0S485.44,9.11,477.37,25.27Z"/><path class="cls-1" d="M685.91,4.56c-1.66,2.69-7.46,14.08-12.84,25.47S663.13,51,662.92,51.15c-.21.41-12.63,2.28-28,4.56-15.12,2.28-28.58,5.18-29.82,6.42-1.45,1.45,3.94,8.08,18.85,23.4l21.13,21.12-5.18,28c-3.31,18.64-4.35,28.37-2.9,29.82s10.56-2.28,28-11.18l25.89-13.46,25.89,13.46c17.4,8.91,26.51,12.63,28,11.18s.42-11.18-2.9-29.82l-5.18-28,21.13-21.12c14.08-14.29,20.29-22,18.85-23.4-1-1-14.5-3.93-29.82-6.21-16.15-2.49-28.37-5.38-28.79-6.83C714.92,40.6,693.59,1,691.52.42,690.27,0,687.78,1.86,685.91,4.56Z"/><path class="cls-1" d="M877.07,25.89c-11.6,24-12.84,25.89-19.05,26.92-3.73.62-16.36,2.49-28.37,4.14-12,1.86-22.57,4.14-23.82,5.38s5.18,9.11,19.47,23l21.33,20.92-4.76,28.58c-2.69,15.74-4.14,29.41-3.11,30.24.83.83,13.46-4.56,27.75-12l26.3-13.67,26.3,13.67c14.29,7.45,26.92,12.84,27.75,12,1-.83-.41-14.5-3.11-30.24L939,106.45l21.33-21.12c14.91-14.29,20.92-21.54,19.47-23-1.24-1.24-14.5-3.93-29.82-6.21-15.12-2.28-28-4.35-28.37-4.76s-6.21-12.22-13.05-26.09C900.27,8.71,894.88,0,892.81,0,890.53,0,885.14,8.7,877.07,25.89Z"/></g></g></svg>