<svg xmlns="http://www.w3.org/2000/svg" viewBox="0 0 699.54 701.39"><defs><style>.cls-1{fill:#089f8e;}</style></defs><title>support</title><g id="Layer_2" data-name="Layer 2"><g id="Layer_1-2" data-name="Layer 1"><path class="cls-1" d="M693.16,138.23l-145,143.34s-43.34,0-86.67-43.34-43.33-86.66-43.33-86.66l145-145c-81.67-20-180,6.66-240,66.66-90,90-10,205-33.34,228.34C163.16,433.23,33.16,533.23,29.82,538.23c-38.33,38.34-40,100-3.33,136.67s98.33,35,136.67-3.33c5-5,111.66-140,236.66-265,23.34-23.34,133.34,61.66,226.67-30,58.33-60,86.67-156.67,66.67-238.34ZM104.82,639.9a41.26,41.26,0,0,1-41.66-41.67c0-25,18.33-43.33,41.66-43.33a41.26,41.26,0,0,1,41.67,41.67c0,23.33-18.33,43.33-41.67,43.33Z"/></g></g></svg>